
<svg width="21" height="21" viewBox="0 0 21 21" fill="none" xmlns="http://www.w3.org/2000/svg">
<path d="M17.6991 0.0800781H2.46103C1.14674 0.0800781 0.0800781 1.14674 0.0800781 2.46103V17.6991C0.0800781 19.0134 1.14674 20.0801 2.46103 20.0801H17.6991C19.0134 20.0801 20.0801 19.0134 20.0801 17.6991V2.46103C20.0801 1.14674 19.0134 0.0800781 17.6991 0.0800781ZM6.27055 7.69913V16.7467H3.41341V7.69913H6.27055ZM3.41341 5.06579C3.41341 4.39913 3.98484 3.8896 4.84198 3.8896C5.69913 3.8896 6.23722 4.39913 6.27055 5.06579C6.27055 5.73246 5.73722 6.27055 4.84198 6.27055C3.98484 6.27055 3.41341 5.73246 3.41341 5.06579ZM16.7467 16.7467H13.8896C13.8896 16.7467 13.8896 12.3372 13.8896 11.9848C13.8896 11.0325 13.4134 10.0801 12.2229 10.061H12.1848C11.0325 10.061 10.5563 11.042 10.5563 11.9848C10.5563 12.4182 10.5563 16.7467 10.5563 16.7467H7.69913V7.69913H10.5563V8.91817C10.5563 8.91817 11.4753 7.69913 13.3229 7.69913C15.2134 7.69913 16.7467 8.99913 16.7467 11.6325V16.7467Z" fill="#C4C4C4"/>
</svg>