<svg xmlns="http://www.w3.org/2000/svg" width="24" height="24" fill="none"><path fill="#fff" d="m15.3 21-6.575-2.325L4.25 20.45a.798.798 0 0 1-.837-.025c-.275-.167-.413-.417-.413-.75V5.725c0-.217.063-.408.188-.575.124-.167.287-.292.487-.375L8.725 3 15.3 5.3l4.45-1.775a.858.858 0 0 1 .837.038c.276.158.413.404.413.737v14.125a.67.67 0 0 1-.188.475c-.125.133-.279.233-.462.3L15.3 21Zm-.85-1.875V6.5l-4.9-1.65v12.625l4.9 1.65Zm1.5 0 3.55-1.175V5.15L15.95 6.5v12.625Zm-11.45-.3 3.55-1.35V4.85L4.5 6.025v12.8ZM15.95 6.5v12.625V6.5Zm-7.9-1.65v12.625V4.85Z"/></svg>