<svg xmlns="http://www.w3.org/2000/svg" width="24" height="24" fill="none"><path fill="#fff" d="M6.875 21c-.653 0-1.212-.23-1.677-.692a2.257 2.257 0 0 1-.698-1.662c0-.661.233-1.219.698-1.673a2.315 2.315 0 0 1 1.677-.682c.194 0 .365.017.51.052.146.034.296.086.448.155l1.771-2.19A3.39 3.39 0 0 1 9 13.226a2.612 2.612 0 0 1-.104-1.27l-2.521-.847a2.241 2.241 0 0 1-.823.805c-.34.193-.733.29-1.177.29-.653 0-1.212-.231-1.677-.693A2.257 2.257 0 0 1 2 9.848c0-.661.233-1.219.698-1.673a2.315 2.315 0 0 1 1.677-.682c.667 0 1.23.228 1.688.682.458.454.687 1.012.687 1.673v.082l2.542.868c.25-.44.552-.778.906-1.012.354-.234.746-.4 1.177-.496V6.626a2.269 2.269 0 0 1-1.281-.888c-.313-.44-.469-.902-.469-1.384 0-.66.233-1.218.698-1.672A2.315 2.315 0 0 1 12 2c.667 0 1.23.227 1.688.682.458.454.687 1.011.687 1.672 0 .482-.16.943-.48 1.384-.319.44-.742.737-1.27.888V9.29c.43.097.826.262 1.188.496.36.234.666.571.916 1.012l2.521-.868v-.082c0-.661.233-1.219.698-1.673a2.315 2.315 0 0 1 1.677-.682c.667 0 1.23.228 1.688.682.458.454.687 1.012.687 1.673 0 .647-.23 1.201-.688 1.662a2.287 2.287 0 0 1-1.687.692c-.444 0-.84-.096-1.188-.289a2.068 2.068 0 0 1-.812-.805l-2.52.846c.069.44.037.864-.095 1.27a3.06 3.06 0 0 1-.614 1.085l1.77 2.189c.153-.069.303-.12.449-.155a2.24 2.24 0 0 1 .51-.052c.667 0 1.23.227 1.688.682.458.454.687 1.012.687 1.673 0 .647-.23 1.2-.688 1.662a2.287 2.287 0 0 1-1.687.692c-.653 0-1.212-.23-1.677-.692a2.257 2.257 0 0 1-.698-1.662c0-.276.038-.524.115-.744.076-.22.184-.434.322-.64l-1.77-2.19c-.445.235-.92.352-1.427.352s-.983-.117-1.428-.351l-1.75 2.21c.14.206.247.416.323.63.077.213.115.457.115.733 0 .647-.23 1.2-.688 1.662A2.287 2.287 0 0 1 6.875 21Zm-2.5-10.037c.32 0 .587-.107.802-.32.215-.213.323-.479.323-.795 0-.317-.108-.582-.323-.795a1.094 1.094 0 0 0-.802-.32c-.32 0-.587.106-.802.32a1.075 1.075 0 0 0-.323.795c0 .316.108.582.323.795.215.213.483.32.802.32Zm2.5 8.798c.32 0 .587-.107.802-.32.215-.214.323-.479.323-.795 0-.317-.108-.582-.323-.796a1.094 1.094 0 0 0-.802-.32c-.32 0-.587.107-.802.32a1.075 1.075 0 0 0-.323.796c0 .316.108.581.323.795.215.213.483.32.802.32ZM12 5.47c.32 0 .587-.107.802-.32.215-.214.323-.479.323-.796 0-.316-.108-.581-.323-.795A1.094 1.094 0 0 0 12 3.24c-.32 0-.587.107-.802.32a1.075 1.075 0 0 0-.323.795c0 .317.108.582.323.795.215.214.483.32.802.32Zm.02 8.715c.515 0 .952-.183 1.313-.548.361-.364.542-.808.542-1.332 0-.509-.18-.943-.542-1.3A1.82 1.82 0 0 0 12 10.466a1.83 1.83 0 0 0-1.323.537 1.771 1.771 0 0 0-.552 1.322c0 .51.184.947.552 1.311.368.365.816.548 1.344.548Zm5.105 5.576c.32 0 .587-.107.802-.32.215-.214.323-.479.323-.795 0-.317-.108-.582-.323-.796a1.094 1.094 0 0 0-.802-.32c-.32 0-.587.107-.802.32a1.075 1.075 0 0 0-.323.796c0 .316.108.581.323.795.215.213.483.32.802.32Zm2.5-8.798c.32 0 .587-.107.802-.32.215-.213.323-.479.323-.795 0-.317-.108-.582-.323-.795a1.094 1.094 0 0 0-.802-.32c-.32 0-.587.106-.802.32a1.075 1.075 0 0 0-.323.795c0 .316.108.582.323.795.215.213.483.32.802.32Z"/></svg>