<svg width="226" height="44" viewBox="0 0 226 44" fill="none" xmlns="http://www.w3.org/2000/svg">
<path d="M53.4082 4.66116C46.9813 4.66116 39.2046 10.3811 32.1349 14.7283C25.4669 18.804 17.7385 23.0223 10.8616 23.0223C3.26169 23.0223 0.208877 18.9611 0 15.1287C0 22.7139 3.38564 29.9885 9.41209 35.3519C15.4386 40.7156 23.6122 43.7287 32.1349 43.7287C40.6577 43.7287 48.8313 40.7156 54.8577 35.3519C60.8841 29.9885 64.2699 22.7139 64.2699 15.1287V14.7283C64.2699 9.98066 59.9798 4.64686 53.4082 4.66116Z" fill="url(#paint0_linear_1748_47)"/>
<path d="M53.4082 23.0372C46.5314 23.0372 38.8029 18.8044 32.1349 14.729C25.0652 10.3818 17.2886 4.64746 10.8616 4.64746C4.30608 4.64746 0 9.98136 0 14.729V15.1294C0 22.7146 3.38564 29.9892 9.41209 35.3526C15.4386 40.7161 23.6122 43.7294 32.1349 43.7294C40.6577 43.7294 48.8313 40.7161 54.8577 35.3526C60.8841 29.9892 64.2699 22.7146 64.2699 15.1294C64.061 18.9618 61.0082 23.0372 53.4082 23.0372Z" fill="url(#paint1_linear_1748_47)"/>
<path d="M53.4082 23.0372C46.5314 23.0372 38.8029 18.8044 32.1349 14.729C25.0652 10.3818 17.2886 4.64746 10.8616 4.64746C4.30608 4.64746 0 9.98136 0 14.729V15.1294C0 22.7146 3.38564 29.9892 9.41209 35.3526C15.4386 40.7161 23.6122 43.7294 32.1349 43.7294C40.6577 43.7294 48.8313 40.7161 54.8577 35.3526C60.8841 29.9892 64.2699 22.7146 64.2699 15.1294C64.061 18.9618 61.0082 23.0372 53.4082 23.0372Z" fill="url(#paint2_linear_1748_47)"/>
<path d="M91.6095 32.0387L91.5893 23.2674H92.7546L103.845 10.883H112.343L98.7013 26.0573H97.1946L91.6095 32.0387ZM84.9795 41.7132V0.606445H92.2524V41.7132H84.9795ZM104.347 41.7132L94.3016 27.6831L99.2037 22.5647L113.046 41.7132H104.347ZM136.859 28.7469V10.883H144.132V41.7132H137.08V36.2335H136.758C136.062 37.9597 134.917 39.3716 133.323 40.4688C131.742 41.566 129.793 42.1147 127.476 42.1147C125.454 42.1147 123.666 41.6664 122.112 40.7697C120.572 39.8599 119.366 38.5418 118.496 36.8157C117.625 35.0762 117.19 32.9754 117.19 30.5133V10.883H124.463V29.3892C124.463 31.3428 124.999 32.8951 126.07 34.0459C127.142 35.1967 128.548 35.7721 130.289 35.7721C131.361 35.7721 132.399 35.5109 133.403 34.9891C134.408 34.4673 135.232 33.6912 135.874 32.6609C136.531 31.617 136.859 30.3125 136.859 28.7469ZM158.883 0.606445V41.7132H151.61V0.606445H158.883ZM180.024 42.3152C176.93 42.3152 174.258 41.6729 172.008 40.3885C169.771 39.0906 168.05 37.2572 166.844 34.8887C165.639 32.5069 165.036 29.7037 165.036 26.4788C165.036 23.3074 165.639 20.5243 166.844 18.1289C168.063 15.7204 169.764 13.847 171.947 12.5088C174.131 11.1575 176.696 10.4817 179.642 10.4817C181.544 10.4817 183.339 10.7894 185.026 11.4051C186.727 12.0072 188.227 12.9438 189.527 14.2151C190.839 15.4862 191.871 17.1054 192.621 19.0724C193.371 21.026 193.746 23.3542 193.746 26.0573V28.2852H168.452V23.3877H186.774C186.761 21.9961 186.46 20.7583 185.87 19.6744C185.281 18.5772 184.457 17.7143 183.399 17.0853C182.354 16.4563 181.136 16.1418 179.742 16.1418C178.256 16.1418 176.95 16.5031 175.825 17.2257C174.7 17.9349 173.822 18.8716 173.193 20.0357C172.577 21.1865 172.262 22.451 172.249 23.8292V28.1045C172.249 29.8976 172.577 31.4364 173.233 32.721C173.889 33.9923 174.807 34.969 175.986 35.6516C177.164 36.3205 178.544 36.6552 180.124 36.6552C181.182 36.6552 182.14 36.508 182.997 36.2136C183.854 35.9057 184.598 35.4576 185.227 34.8688C185.857 34.2799 186.332 33.5508 186.654 32.681L193.444 33.4436C193.016 35.2367 192.199 36.8023 190.993 38.1403C189.801 39.4652 188.274 40.4955 186.413 41.2314C184.551 41.954 182.421 42.3152 180.024 42.3152ZM208.779 42.3354C206.823 42.3354 205.062 41.9874 203.495 41.2917C201.941 40.5825 200.709 39.5387 199.798 38.1604C198.901 36.7822 198.452 35.0829 198.452 33.0624C198.452 31.3227 198.774 29.8843 199.416 28.7469C200.059 27.6094 200.937 26.6996 202.048 26.0171C203.16 25.3348 204.412 24.8195 205.805 24.4716C207.212 24.1103 208.665 23.8494 210.165 23.6888C211.973 23.5014 213.44 23.3343 214.565 23.1872C215.69 23.0264 216.507 22.7856 217.016 22.4646C217.538 22.13 217.799 21.6147 217.799 20.919V20.7985C217.799 19.2865 217.351 18.1156 216.453 17.2861C215.556 16.4563 214.264 16.0414 212.576 16.0414C210.795 16.0414 209.381 16.4296 208.337 17.2058C207.305 17.9817 206.609 18.8985 206.247 19.9555L199.457 18.9921C199.992 17.1188 200.876 15.5531 202.109 14.2954C203.341 13.0241 204.848 12.0741 206.629 11.4451C208.41 10.8028 210.379 10.4817 212.536 10.4817C214.022 10.4817 215.503 10.6556 216.976 11.0036C218.449 11.3515 219.795 11.9269 221.014 12.7297C222.233 13.5192 223.211 14.5963 223.947 15.9612C224.697 17.3261 225.072 19.0321 225.072 21.0796V41.7132H218.081V37.4781H217.84C217.398 38.3345 216.775 39.1374 215.971 39.8866C215.181 40.6225 214.183 41.218 212.978 41.6729C211.786 42.1147 210.386 42.3354 208.779 42.3354ZM210.667 36.9963C212.127 36.9963 213.393 36.7087 214.464 36.1333C215.536 35.5444 216.36 34.7685 216.935 33.8049C217.525 32.8415 217.82 31.7911 217.82 30.6537V27.0207C217.592 27.2081 217.203 27.382 216.654 27.5425C216.119 27.7032 215.516 27.8436 214.846 27.9641C214.176 28.0844 213.513 28.1916 212.857 28.2852C212.201 28.379 211.632 28.4593 211.149 28.5262C210.064 28.6734 209.093 28.9142 208.236 29.2488C207.379 29.5832 206.703 30.0516 206.207 30.6537C205.712 31.2424 205.464 32.0052 205.464 32.9419C205.464 34.2799 205.953 35.2903 206.93 35.9726C207.908 36.6551 209.154 36.9963 210.667 36.9963Z" fill="white"/>
<defs>
<linearGradient id="paint0_linear_1748_47" x1="32.1349" y1="6.54876" x2="32.1349" y2="43.6875" gradientUnits="userSpaceOnUse">
<stop stop-color="#5558DB"/>
<stop offset="1"/>
</linearGradient>
<linearGradient id="paint1_linear_1748_47" x1="32.1349" y1="4.64746" x2="32.1349" y2="32.0072" gradientUnits="userSpaceOnUse">
<stop stop-color="#00FF47"/>
<stop offset="1" stop-color="#5558DB"/>
</linearGradient>
<linearGradient id="paint2_linear_1748_47" x1="32.1349" y1="4.64746" x2="32.1349" y2="32.0072" gradientUnits="userSpaceOnUse">
<stop stop-color="#00FFC2"/>
<stop offset="1" stop-color="#5558DB"/>
</linearGradient>
</defs>
</svg>