<svg xmlns="http://www.w3.org/2000/svg" width="24" height="24" fill="none"><g clip-path="url(#a)"><path fill="#fff" d="M23.616 17.268a2.962 2.962 0 0 0-.952-1.501 10.855 10.855 0 0 0-.186-6.117 10.879 10.879 0 0 0-4.062-5.547.94.94 0 0 0-1.31.218.936.936 0 0 0 .218 1.308 9.017 9.017 0 0 1 3.367 4.597 9.002 9.002 0 0 1 .212 4.835 3 3 0 0 0-2.774 1.486c-.4.69-.506 1.495-.3 2.265.208.771.703 1.416 1.397 1.814a3.004 3.004 0 0 0 4.09-1.092c.4-.69.506-1.495.3-2.265Zm-1.926 1.328a1.12 1.12 0 0 1-1.526.406 1.105 1.105 0 0 1-.408-1.516c.493-.852 1.787-.691 2.045.268a1.1 1.1 0 0 1-.111.841ZM1.885 12.968a.939.939 0 0 0 1.026-.842 8.999 8.999 0 0 1 2.313-5.204A9.07 9.07 0 0 1 9.322 4.32 2.998 2.998 0 0 0 12 5.971a2.994 2.994 0 0 0 2.995-2.985A2.994 2.994 0 0 0 12 0a2.997 2.997 0 0 0-2.945 2.446 10.934 10.934 0 0 0-5.224 3.218 10.859 10.859 0 0 0-2.79 6.28.938.938 0 0 0 .844 1.024ZM12 1.875c.615 0 1.116.498 1.116 1.11 0 .613-.5 1.112-1.116 1.112a1.115 1.115 0 0 1-1.116-1.111c0-.613.5-1.111 1.116-1.111Zm3.765 19.437a9.078 9.078 0 0 1-5.68.607 9.078 9.078 0 0 1-4.308-2.233 2.987 2.987 0 0 0 .094-3.139 3.004 3.004 0 0 0-4.09-1.093 2.967 2.967 0 0 0-1.397 1.814c-.206.77-.1 1.575.3 2.266a3.003 3.003 0 0 0 3.598 1.319 10.939 10.939 0 0 0 5.41 2.899c2.278.488 4.65.263 6.85-.732a.937.937 0 1 0-.777-1.708Zm-11.41-2.985c-.254.947-1.546 1.129-2.045.268a1.104 1.104 0 0 1 .408-1.517 1.12 1.12 0 0 1 1.526.408c.149.256.189.555.112.841Z"/></g><defs><clipPath id="a"><path fill="#fff" d="M0 0h24v24H0z"/></clipPath></defs></svg>